<?xml version="1.0" encoding="UTF-8"?>
<svg width="53px" height="54px" viewBox="0 0 53 54" version="1.1" xmlns="http://www.w3.org/2000/svg" xmlns:xlink="http://www.w3.org/1999/xlink">
    <!-- Generator: Sketch 47.1 (45422) - http://www.bohemiancoding.com/sketch -->
    <title>Free Icon</title>
    <desc>Created with Sketch.</desc>
    <defs></defs>
    <g id="Sign-In-Flow" stroke="none" stroke-width="1" fill="none" fill-rule="evenodd">
        <g id="1.3-Create-your-ad-V1" transform="translate(-411.000000, -400.000000)" fill="#44C0FF">
            <g id="Free" transform="translate(249.000000, 347.000000)">
                <g id="Free-Icon" transform="translate(162.000000, 53.000000)">
                    <path d="M21.4545455,30.6418489 C21.9530369,30.6418489 22.3583054,31.0477317 22.3583054,31.5457337 C22.3583054,32.0437357 21.9530369,32.4490602 21.4545455,32.4490602 C20.956054,32.4490602 20.5507856,32.0437357 20.5507856,31.5457337 C20.5507856,31.0477317 20.9566123,30.6418489 21.4545455,30.6418489 M21.4545455,33.5656566 C22.5681965,33.5656566 23.4747475,32.6595386 23.4747475,31.5457337 C23.4747475,30.4319288 22.5681965,29.5252525 21.4545455,29.5252525 C20.3403362,29.5252525 19.4343434,30.4319288 19.4343434,31.5457337 C19.4343434,32.6595386 20.3408944,33.5656566 21.4545455,33.5656566" id="Fill-1"></path>
                    <path d="M21.4545455,39.5199215 C20.956054,39.5199215 20.5507856,39.1140948 20.5507856,38.6161616 C20.5507856,38.1182284 20.9566123,37.7124017 21.4545455,37.7124017 C21.9524786,37.7124017 22.3583054,38.1182284 22.3583054,38.6161616 C22.3583054,39.1140948 21.9530369,39.5199215 21.4545455,39.5199215 M21.4545455,36.5959596 C20.3403362,36.5959596 19.4343434,37.5025106 19.4343434,38.6161616 C19.4343434,39.7298126 20.3408944,40.6363636 21.4545455,40.6363636 C22.5681965,40.6363636 23.4747475,39.7298126 23.4747475,38.6161616 C23.4747475,37.5025106 22.5687547,36.5959596 21.4545455,36.5959596" id="Fill-3"></path>
                    <path d="M15.3939394,35.6917957 C15.8924308,35.6917957 16.2976993,36.0971202 16.2976993,36.5956804 C16.2976993,37.0931241 15.8924308,37.4990069 15.3939394,37.4990069 C14.895448,37.4990069 14.4901795,37.0931241 14.4901795,36.5956804 C14.4901795,36.0971202 14.895448,35.6917957 15.3939394,35.6917957 M15.3939394,38.6161616 C16.5075904,38.6161616 17.4141414,37.7094853 17.4141414,36.5962387 C17.4141414,35.4818755 16.5075904,34.5757576 15.3939394,34.5757576 C14.2797302,34.5757576 13.3737374,35.4818755 13.3737374,36.5962387 C13.3737374,37.7094853 14.2797302,38.6161616 15.3939394,38.6161616" id="Fill-5"></path>
                    <path d="M11.3535354,41.75296 C11.8520268,41.75296 12.2572953,42.1582845 12.2572953,42.6562865 C12.2572953,43.1542885 11.8520268,43.5601713 11.3535354,43.5601713 C10.8550439,43.5601713 10.4497755,43.1542885 10.4497755,42.6562865 C10.4497755,42.1582845 10.8556022,41.75296 11.3535354,41.75296 M11.3535354,44.6767677 C12.4671864,44.6767677 13.3737374,43.7700914 13.3737374,42.6562865 C13.3737374,41.5424816 12.4671864,40.6363636 11.3535354,40.6363636 C10.2393261,40.6363636 9.33333333,41.5424816 9.33333333,42.6562865 C9.33333333,43.7700914 10.2398843,44.6767677 11.3535354,44.6767677" id="Fill-7"></path>
                    <path d="M9.01239119,8.62407972 L8.6728766,7.56621734 L9.71567142,7.93912824 C9.91414706,8.00832821 10.1330446,7.97885415 10.3034401,7.85455051 L11.2000905,7.20291754 L11.1688194,8.31396137 C11.1630757,8.52476496 11.2607181,8.72467596 11.4304754,8.84897959 L12.3239348,9.50381627 L11.2619945,9.81777906 C11.0609661,9.87736792 10.9014198,10.0324271 10.8363249,10.2323381 L10.4917048,11.2876375 L9.86692134,10.370738 C9.74821887,10.1970974 9.55165779,10.0926567 9.34169482,10.0920159 L8.23508147,10.089453 L8.91028154,9.20971643 C9.03855679,9.04440541 9.07684791,8.82463146 9.01239119,8.62407972 M6.3683894,11.0114784 C6.47496634,11.2306116 6.69705484,11.3696523 6.94020345,11.370293 L9.00409478,11.3747782 L10.1700594,13.0849143 C10.2900382,13.2604772 10.4878757,13.3636364 10.6965623,13.3636364 C10.726557,13.3636364 10.7565517,13.3617141 10.7871846,13.357229 C11.0277804,13.322629 11.2275325,13.1541143 11.3034765,12.9221662 L11.9454909,10.9525303 L13.92578,10.3668936 C14.1587176,10.2983344 14.3323041,10.1022678 14.3744243,9.86199015 C14.4159063,9.6217125 14.318264,9.37887189 14.1217029,9.23470531 L12.4547628,8.01281339 L12.5115613,5.94129972 C12.5185814,5.69781837 12.386477,5.47163701 12.1720467,5.35758522 C11.9576165,5.24289269 11.6965987,5.26147416 11.5000376,5.40435927 L9.82735385,6.61920305 L7.88280317,5.92399972 C7.65369464,5.84198496 7.39778232,5.89837011 7.22419592,6.06816631 C7.04997132,6.23860326 6.98679097,6.49233645 7.06145866,6.72428447 L7.69517668,8.69712412 L6.43603704,10.338701 C6.28733986,10.5315639 6.26117426,10.7923452 6.3683894,11.0114784" id="Fill-9"></path>
                    <path d="M45.7195451,7.28466063 C45.5057327,7.25995707 45.2945277,7.33913514 45.1530726,7.4949576 L44.4047291,8.31840961 L44.1870055,7.24095433 C44.1465897,7.03635817 44.003179,6.86406668 43.8063151,6.78108805 L42.7704982,6.34529191 L43.7567732,5.81131496 C43.9445109,5.70996702 44.0690175,5.52500703 44.0885735,5.31787717 L44.1954798,4.22395285 L45.0246547,4.97139391 C45.1824066,5.11391445 45.4020858,5.17218951 45.6093795,5.12531609 L46.7123387,4.88651501 L46.2377795,5.88225851 C46.1465181,6.07165247 46.1589035,6.29145082 46.2677653,6.47134341 L46.8427121,7.41641295 L45.7195451,7.28466063 Z M48.3674293,3.59116165 C48.2116331,3.40303454 47.9606643,3.31625537 47.7175178,3.37009646 L45.6595733,3.8160274 L44.1146482,2.42249323 C43.9334292,2.25780282 43.6700749,2.20776228 43.438662,2.29454145 C43.2072492,2.3806872 43.0449343,2.5865502 43.0214671,2.82661814 L42.8232995,4.86624542 L40.9804711,5.86262235 C40.7633994,5.98043933 40.6343297,6.20720534 40.647367,6.4479067 C40.6591006,6.68860806 40.8116375,6.90207215 41.0384873,6.99771927 L42.9732289,7.81166991 L43.379994,9.82215966 C43.4282322,10.0590605 43.6107549,10.2490879 43.8499902,10.3111635 C43.9060508,10.3257322 43.9634151,10.3333333 44.0201275,10.3333333 C44.2046059,10.3333333 44.3832175,10.2573224 44.5090278,10.1186024 L45.9033716,8.58191425 L47.9965169,8.82831643 C48.2474858,8.85872081 48.4854173,8.7478715 48.6210057,8.54580905 C48.756594,8.34438002 48.7631127,8.08467592 48.6366505,7.87691265 L47.5630253,6.1134585 L48.4502165,4.25435723 C48.5558189,4.03582574 48.5232256,3.77865534 48.3674293,3.59116165 L48.3674293,3.59116165 Z" id="Fill-11"></path>
                    <path d="M43.6762421,40.5948454 C43.141761,40.5948454 42.7076593,40.1607438 42.7076593,39.6262626 C42.7076593,39.0917815 43.1422865,38.6566287 43.6762421,38.6566287 C44.2107233,38.6566287 44.645876,39.0917815 44.645876,39.6262626 C44.645876,40.1607438 44.2112488,40.5948454 43.6762421,40.5948454 M43.6762421,37.6060606 C42.5631339,37.6060606 41.6565657,38.5131544 41.6565657,39.6267882 C41.6565657,40.7404219 42.5631339,41.6464646 43.6762421,41.6464646 C44.7904014,41.6464646 45.6969697,40.7404219 45.6969697,39.6267882 C45.6969697,38.5131544 44.7904014,37.6060606 43.6762421,37.6060606" id="Fill-13"></path>
                    <path d="M25.4952123,5.24183563 C24.9606616,5.24183563 24.5259779,4.8072084 24.5259779,4.27272727 C24.5259779,3.73824615 24.9606616,3.30361892 25.4952123,3.30361892 C26.029763,3.30361892 26.4639211,3.73824615 26.4639211,4.27272727 C26.4639211,4.8072084 26.029763,5.24183563 25.4952123,5.24183563 M25.4952123,2.25252525 C24.3809081,2.25252525 23.4747475,3.15909354 23.4747475,4.27272727 C23.4747475,5.38636101 24.3809081,6.29292929 25.4952123,6.29292929 C26.6089909,6.29292929 27.5151515,5.38636101 27.5151515,4.27272727 C27.5151515,3.15909354 26.6089909,2.25252525 25.4952123,2.25252525" id="Fill-15"></path>
                    <path d="M40.6053353,14.3737374 C40.6053353,14.9082185 40.1706515,15.3428457 39.6366264,15.3428457 C39.1026014,15.3428457 38.6668664,14.9082185 38.6668664,14.3737374 C38.6668664,13.8392562 39.1020758,13.404629 39.6366264,13.404629 C40.1711771,13.404629 40.6053353,13.8397818 40.6053353,14.3737374 M37.6161616,14.3737374 C37.6161616,15.4873711 38.5223222,16.3939394 39.6366264,16.3939394 C40.7498794,16.3939394 41.6565657,15.4873711 41.6565657,14.3737374 C41.6565657,13.2601036 40.7498794,12.3535354 39.6366264,12.3535354 C38.5223222,12.3540609 37.6161616,13.2601036 37.6161616,14.3737374" id="Fill-17"></path>
                    <path d="M9.43173518,34.5759711 C9.85925147,35.2139626 10.5860292,35.6355632 11.410149,35.6355632 C12.7222951,35.6355632 13.7904281,34.5674207 13.7904281,33.2552629 C13.7904281,31.943105 12.7222951,30.8756203 11.410149,30.8756203 C11.2608472,30.8756203 11.1161493,30.8933788 10.9740824,30.9196877 L12.79004,26.615547 C13.1984825,27.3397003 13.9660387,27.8349658 14.8552725,27.8349658 C16.1674187,27.8349658 17.2355517,26.7668233 17.2355517,25.4546655 C17.2355517,24.1425077 16.1674187,23.0743652 14.8552725,23.0743652 C14.6434875,23.0743652 14.4415683,23.1111977 14.2462263,23.1631578 L16.7626529,17.1976083 L22.6788205,23.1138286 C21.5541238,23.3025952 20.6918564,24.2766832 20.6918564,25.4546655 C20.6918564,26.7668233 21.7599894,27.8349658 23.0721355,27.8349658 C24.2501073,27.8349658 25.223529,26.9726907 25.4129516,25.847984 L28.7923034,29.2260504 C27.7491637,29.4792739 26.9704263,30.4145563 26.9704263,31.5333435 C26.9704263,32.8455013 28.0385593,33.9129861 29.3507054,33.9129861 C30.4701404,33.9129861 31.4047567,33.1342418 31.6579779,32.0917505 L36.8131666,37.246985 L31.6592934,39.4207603 C31.667186,39.3418335 31.6829712,39.2655376 31.6829712,39.1852954 C31.6829712,37.8731375 30.6148382,36.804995 29.3026921,36.804995 C27.9905459,36.804995 26.9224129,37.8731375 26.9224129,39.1852954 C26.9224129,39.937073 27.2802112,40.6007157 27.8261166,41.0374439 L18.9022075,44.8022516 C18.9377242,44.6391363 18.9587711,44.4707591 18.9587711,44.2977779 C18.9587711,42.9856201 17.8906382,41.9174776 16.578492,41.9174776 C15.2663459,41.9174776 14.1982129,42.9856201 14.1982129,44.2977779 C14.1982129,45.1488718 14.6507224,45.8907835 15.324225,46.3117264 L9.63891615,48.7097852 C9.6711443,48.5539048 9.68890267,48.3921049 9.68890267,48.2270164 C9.68890267,46.9148586 8.62076968,45.8467161 7.30862354,45.8467161 C5.99581969,45.8467161 4.92834442,46.9148586 4.92834442,48.2270164 C4.92834442,49.0702176 5.37164592,49.8075253 6.03528274,50.2304413 L2.13567651,51.8754071 L9.43173518,34.5759711 Z M11.410149,32.1910667 C11.9974906,32.1910667 12.4749934,32.6685737 12.4749934,33.2552629 C12.4749934,33.841952 11.9974906,34.3201167 11.410149,34.3201167 C10.8228074,34.3201167 10.3453046,33.841952 10.3453046,33.2552629 C10.3453046,32.6685737 10.8234651,32.1910667 11.410149,32.1910667 L11.410149,32.1910667 Z M14.8552725,24.3898116 C15.4426141,24.3898116 15.9201169,24.8679764 15.9201169,25.4546655 C15.9201169,26.0413546 15.4426141,26.5195194 14.8552725,26.5195194 C14.2679309,26.5195194 13.7904281,26.0413546 13.7904281,25.4546655 C13.7904281,24.8679764 14.2679309,24.3898116 14.8552725,24.3898116 L14.8552725,24.3898116 Z M24.1369799,25.4546655 C24.1369799,26.0420123 23.6588194,26.5195194 23.0721355,26.5195194 C22.4854516,26.5195194 22.0072911,26.0413546 22.0072911,25.4546655 C22.0072911,24.8679764 22.4847939,24.3898116 23.0721355,24.3898116 C23.6594771,24.3898116 24.1369799,24.8673187 24.1369799,25.4546655 L24.1369799,25.4546655 Z M30.4148921,31.5333435 C30.4148921,32.1206903 29.9367316,32.5975396 29.3500477,32.5975396 C28.7640215,32.5975396 28.2852033,32.1200326 28.2852033,31.5333435 C28.2852033,30.9466544 28.7627061,30.4684896 29.3500477,30.4684896 C29.9373893,30.4684896 30.4148921,30.9459966 30.4148921,31.5333435 L30.4148921,31.5333435 Z M28.2371899,39.1859531 C28.2371899,38.5986063 28.7146927,38.1210992 29.3020343,38.1210992 C29.889376,38.1210992 30.3668788,38.599264 30.3668788,39.1859531 C30.3668788,39.7726422 29.889376,40.250807 29.3020343,40.250807 C28.7153505,40.250807 28.2371899,39.7726422 28.2371899,39.1859531 L28.2371899,39.1859531 Z M15.5129899,44.2977779 C15.5129899,43.7104311 15.9904927,43.232924 16.5778343,43.232924 C17.1651759,43.232924 17.6426787,43.7110888 17.6426787,44.2977779 C17.6426787,44.884467 17.1645182,45.3619741 16.5778343,45.3619741 C15.9911504,45.3619741 15.5129899,44.8851247 15.5129899,44.2977779 L15.5129899,44.2977779 Z M6.24312142,48.2270164 C6.24312142,47.6396696 6.72128194,47.1621625 7.30796583,47.1621625 C7.89464971,47.1621625 8.37281023,47.6403273 8.37281023,48.2270164 C8.37281023,48.8137055 7.89530743,49.2912126 7.30796583,49.2912126 C6.72062422,49.2912126 6.24312142,48.8137055 6.24312142,48.2270164 L6.24312142,48.2270164 Z M0.900483305,53.7676768 C0.986644279,53.7676768 1.07346297,53.7512337 1.15633536,53.7157166 L38.2239703,38.0790049 C38.4258896,37.9941586 38.5719028,37.8146002 38.6139967,37.5995247 C38.6560906,37.3844492 38.5883458,37.1627965 38.4337822,37.0082315 L27.7175932,26.2919472 L17.0014043,15.5763205 C16.8468407,15.4217556 16.6245322,15.3540101 16.4101164,15.3961044 C16.1950428,15.4375409 16.015486,15.5842132 15.9306404,15.7861343 L0.294067899,52.8540992 C0.190148556,53.1007454 0.246054532,53.3861973 0.434819414,53.5749639 C0.561101147,53.700589 0.729476791,53.7676768 0.900483305,53.7676768 L0.900483305,53.7676768 Z" id="Fill-19"></path>
                    <path d="M29.2631217,20.4343434 C29.4904598,20.4343434 29.7133692,20.3374977 29.858777,20.1560825 C30.106044,19.8444029 35.9031644,12.3934195 34.3088456,0.827856561 C34.2571779,0.45343186 33.8873845,0.192903198 33.4828999,0.237233991 C33.0784153,0.284974845 32.7912903,0.62666296 32.8436961,0.999723636 C34.3612515,12.0012625 28.7250391,19.2769687 28.6674665,19.349262 C28.4268424,19.6527574 28.4991773,20.0796971 28.8268984,20.3020331 C28.9597583,20.3913767 29.1118091,20.4343434 29.2631217,20.4343434" id="Fill-22"></path>
                    <path d="M34.2161104,24.4747475 C34.3563661,24.4747475 34.4959813,24.4378628 34.6138216,24.3609318 C34.6900336,24.3103471 42.3778353,19.4104782 51.8902411,22.5235468 C52.2175043,22.6320932 52.5908788,22.4993083 52.7221684,22.2289962 C52.8528174,21.9581571 52.6927083,21.6520141 52.3628834,21.5445215 C42.1459972,18.1969715 33.8990943,23.4820221 33.8171184,23.5357684 C33.5404498,23.7165034 33.4949788,24.0479388 33.715289,24.2750432 C33.8408146,24.4067742 34.0278221,24.4747475 34.2161104,24.4747475" id="Fill-25"></path>
                    <path d="M22.4759354,16.3770695 C22.5225388,16.3887487 22.5697636,16.3939394 22.6157457,16.3939394 C22.8984731,16.3939394 23.1538599,16.1915004 23.2203474,15.8917351 C23.2799998,15.6231141 24.6259067,9.28132449 20.4676384,5.44536579 C20.2097661,5.20853817 19.8182974,5.23319419 19.5902513,5.50181512 C19.3628266,5.77043604 19.3870603,6.1805047 19.6443113,6.41733232 C23.2420957,9.7361633 22.0217073,15.5413599 22.0092798,15.5997558 C21.9328501,15.9494821 22.1416335,16.2972618 22.4759354,16.3770695" id="Fill-27"></path>
                    <path d="M41.4763865,33.2760106 C41.5469785,33.2559355 48.55869,31.2758051 51.602489,35.3303579 C51.7276293,35.4964333 51.925287,35.5858586 52.1261533,35.5858586 C52.2545024,35.5858586 52.3847768,35.5487502 52.497724,35.4727083 C52.7865094,35.2780411 52.8545345,34.89844 52.6485342,34.624081 C49.0746534,29.8632512 41.4244051,32.0191905 41.1003236,32.1122657 C40.761482,32.210816 40.5708836,32.5508753 40.6748463,32.8720761 C40.7794509,33.1944937 41.1388284,33.3757775 41.4763865,33.2760106" id="Fill-29"></path>
                </g>
            </g>
        </g>
    </g>
</svg>