<?xml version="1.0" encoding="UTF-8"?>
<svg width="45px" height="81px" viewBox="0 0 45 81" version="1.1" xmlns="http://www.w3.org/2000/svg" xmlns:xlink="http://www.w3.org/1999/xlink">
    <!-- Generator: Sketch 47.1 (45422) - http://www.bohemiancoding.com/sketch -->
    <title>Monetize Icon</title>
    <desc>Created with Sketch.</desc>
    <defs></defs>
    <g id="Sign-In-Flow" stroke="none" stroke-width="1" fill="none" fill-rule="evenodd">
        <g id="1.0_Choose-Path" transform="translate(-938.000000, -349.000000)">
            <g id="Publisher" transform="translate(730.000000, 251.000000)">
                <g id="Monetize-Icon" transform="translate(208.000000, 98.000000)">
                    <g id="$" transform="translate(16.000000, 29.000000)">
                        <path d="M2.83491461,17.2939294 C1.79506121,16.9770602 0.963949981,16.5510536 0.341555977,16.0158967 C0.113850854,15.8187337 0,15.5722836 0,15.276539 C0,15.0793759 0.0607204554,14.9068609 0.182163188,14.7589886 C0.30360592,14.6111163 0.447817002,14.5371813 0.614800759,14.5371813 C0.812145199,14.5371813 1.02466679,14.614637 1.25237192,14.7695508 C2.66414368,15.7835322 4.27323575,16.2905153 6.07969639,16.2905153 C7.38520577,16.2905153 8.38709328,16.0581481 9.08538899,15.5934066 C9.78368471,15.1286651 10.1328273,14.4667705 10.1328273,13.607703 C10.1328273,13.1147954 9.96584607,12.7169545 9.63187856,12.4141684 C9.29791104,12.1113822 8.85768774,11.8684529 8.31119545,11.6853729 C7.76470315,11.5022929 7.02846763,11.3121742 6.10246679,11.1150112 C4.85767879,10.8474328 3.83681613,10.5657755 3.0398482,10.2700309 C2.24288027,9.97428637 1.59772543,9.55180046 1.10436433,9.00256055 C0.611003226,8.45332063 0.364326376,7.73509459 0.364326376,6.84786088 C0.364326376,6.00287639 0.611003226,5.25296391 1.10436433,4.59810093 C1.59772543,3.94323795 2.28842061,3.43625486 3.17647059,3.07713646 C4.06452057,2.71801805 5.07779317,2.53846154 6.21631879,2.53846154 C7.27894269,2.53846154 8.26944512,2.68985232 9.18785579,2.99263843 C10.1062665,3.29542454 10.8766572,3.72847259 11.4990512,4.29179558 C11.7419367,4.51712478 11.8633776,4.76357489 11.8633776,5.03115331 C11.8633776,5.22831636 11.8026572,5.40083144 11.6812144,5.54870372 C11.5597717,5.69657601 11.4155606,5.77051104 11.2485769,5.77051104 C11.0815931,5.77051104 10.8614814,5.69305529 10.5882353,5.53814147 C9.84439856,4.97481848 9.15370338,4.5804983 8.51612903,4.3551691 C7.87855469,4.12983991 7.11195894,4.017177 6.21631879,4.017177 C4.95635044,4.017177 3.97723309,4.26010639 3.27893738,4.74597247 C2.58064167,5.23183855 2.23149905,5.91133672 2.23149905,6.78448736 C2.23149905,7.53089032 2.53889636,8.09068415 3.15370019,8.46388563 C3.76850402,8.83708711 4.71346611,9.16451369 5.9886148,9.44617518 C7.37002588,9.75600283 8.45540402,10.0411808 9.24478178,10.3017177 C10.0341595,10.5622546 10.6906995,10.953054 11.2144213,11.4741278 C11.738143,11.9952016 12,12.6923033 12,13.565454 C12,14.3963554 11.7533231,15.1286643 11.259962,15.7624026 C10.7666009,16.396141 10.0721107,16.8890412 9.17647059,17.2411181 C8.28083044,17.593195 7.25617275,17.7692308 6.10246679,17.7692308 C4.96394118,17.7692308 3.87476801,17.6107986 2.83491461,17.2939294 Z" id="S" fill="#FFFFFF"></path>
                        <path d="M6,0 L6,22" id="Line" stroke="#FFFFFF" stroke-width="2" stroke-linecap="round"></path>
                    </g>
                    <path d="M39.9320388,0 L5.06796117,0 C2.3592233,0 0,2.25240642 0,5.02459893 L0,75.9754011 C0,78.6609626 2.27184466,81 5.06796117,81 L39.9320388,81 C42.6407767,81 45,78.7475936 45,75.9754011 L45,5.02459893 C45,2.33903743 42.6407767,0 39.9320388,0 Z M42.2038835,75.9754011 C42.2038835,77.2748663 41.2427184,78.2278075 39.9320388,78.2278075 L5.06796117,78.2278075 C3.75728155,78.2278075 2.7961165,77.2748663 2.7961165,75.9754011 L2.7961165,68.2652406 L42.2912621,68.2652406 L42.2912621,75.9754011 L42.2038835,75.9754011 Z M42.2038835,65.5796791 L2.70873786,65.5796791 L2.70873786,10.0491979 L42.2038835,10.0491979 L42.2038835,65.5796791 Z M42.2038835,7.27700535 L2.70873786,7.27700535 L2.70873786,5.02459893 C2.70873786,3.72513369 3.66990291,2.77219251 4.98058252,2.77219251 L17.4757282,2.77219251 C17.5631068,3.29197861 18,3.63850267 18.5242718,3.63850267 L26.2135922,3.63850267 C26.7378641,3.63850267 27.1747573,3.20534759 27.2621359,2.77219251 L39.7572816,2.77219251 C41.0679612,2.77219251 42.0291262,3.72513369 42.0291262,5.02459893 L42.0291262,7.27700535 L42.2038835,7.27700535 Z" id="Shape" fill="#FFFFFF" fill-rule="nonzero"></path>
                </g>
            </g>
        </g>
    </g>
</svg>