<?xml version="1.0" encoding="UTF-8"?>
<svg width="27px" height="54px" viewBox="0 0 27 54" version="1.1" xmlns="http://www.w3.org/2000/svg" xmlns:xlink="http://www.w3.org/1999/xlink">
    <!-- Generator: Sketch 47.1 (45422) - http://www.bohemiancoding.com/sketch -->
    <title>$</title>
    <desc>Created with Sketch.</desc>
    <defs></defs>
    <g id="Sign-In-Flow" stroke="none" stroke-width="1" fill="none" fill-rule="evenodd">
        <g id="1.3-Create-your-ad-V1" transform="translate(-949.000000, -400.000000)">
            <g id="Premium" transform="translate(774.000000, 347.000000)">
                <g id="$" transform="translate(175.000000, 55.000000)">
                    <path d="M6.225,41.925 C3.94165525,41.1749962 2.1166735,40.166673 0.75,38.9 C0.2499975,38.433331 0,37.8500035 0,37.15 C0,36.683331 0.133332,36.2750017 0.4,35.925 C0.666668,35.5749982 0.9833315,35.4 1.35,35.4 C1.7833355,35.4 2.2499975,35.5833315 2.75,35.95 C5.8500155,38.350012 9.3833135,39.55 13.35,39.55 C16.216681,39.55 18.416659,39.0000055 19.95,37.9 C21.483341,36.7999945 22.25,35.2333435 22.25,33.2 C22.25,32.0333275 21.883337,31.0916702 21.15,30.375 C20.416663,29.6583298 19.450006,29.0833355 18.25,28.65 C17.049994,28.2166645 15.4333435,27.766669 13.4,27.3 C10.666653,26.6666635 8.42500875,26.0000035 6.675,25.3 C4.92499125,24.5999965 3.50833875,23.6000065 2.425,22.3 C1.34166125,20.9999935 0.8,19.3000105 0.8,17.2 C0.8,15.19999 1.34166125,13.4250077 2.425,11.875 C3.50833875,10.3249922 5.02499025,9.12500425 6.975,8.275 C8.92500975,7.42499575 11.1499875,7 13.65,7 C15.983345,7 18.1583232,7.35832975 20.175,8.075 C22.1916767,8.79167025 23.8833265,9.81666 25.25,11.15 C25.783336,11.683336 26.05,12.2666635 26.05,12.9 C26.05,13.366669 25.916668,13.7749982 25.65,14.125 C25.383332,14.4750017 25.0666685,14.65 24.7,14.65 C24.3333315,14.65 23.850003,14.4666685 23.25,14.1 C21.6166585,12.76666 20.100007,11.833336 18.7,11.3 C17.299993,10.766664 15.6166765,10.5 13.65,10.5 C10.8833195,10.5 8.733341,11.0749942 7.2,12.225 C5.666659,13.3750057 4.9,14.983323 4.9,17.05 C4.9,18.8166755 5.57499325,20.1416622 6.925,21.025 C8.27500675,21.9083377 10.349986,22.68333 13.15,23.35 C16.1833485,24.083337 18.566658,24.7583302 20.3,25.375 C22.033342,25.9916697 23.4749943,26.9166605 24.625,28.15 C25.7750057,29.3833395 26.35,31.033323 26.35,33.1 C26.35,35.0666765 25.8083387,36.7999925 24.725,38.3 C23.6416612,39.8000075 22.1166765,40.9666625 20.15,41.8 C18.1833235,42.6333375 15.933346,43.05 13.4,43.05 C10.8999875,43.05 8.50834475,42.6750037 6.225,41.925 Z" id="S" fill="#FFFFFF"></path>
                    <path d="M13,0 L13,50" id="Line" stroke="#FFFFFF" stroke-width="4" stroke-linecap="round"></path>
                </g>
            </g>
        </g>
    </g>
</svg>