<?xml version="1.0" encoding="UTF-8"?>
<svg width="79px" height="77px" viewBox="0 0 79 77" version="1.1" xmlns="http://www.w3.org/2000/svg" xmlns:xlink="http://www.w3.org/1999/xlink">
    <!-- Generator: Sketch 47.1 (45422) - http://www.bohemiancoding.com/sketch -->
    <title>Advertising Icon</title>
    <desc>Created with Sketch.</desc>
    <defs></defs>
    <g id="Sign-In-Flow" stroke="none" stroke-width="1" fill="none" fill-rule="evenodd">
        <g id="1.0_Choose-Path" transform="translate(-440.000000, -353.000000)" fill-rule="nonzero" fill="#44C0FF">
            <g id="Sponsor" transform="translate(250.000000, 251.000000)">
                <g id="Advertising-Icon" transform="translate(190.000000, 102.000000)">
                    <path d="M69.5652795,22.5851017 L69.2474153,22.5851017 L69.2474153,1.67297942 C69.2474153,1.03930521 68.8893958,0.460017481 68.3226203,0.176629759 C67.7558449,-0.106757962 67.077603,-0.0456009284 66.5706636,0.334603597 L42.5468176,18.4026773 L19.8446176,18.4026773 C14.9957131,18.4084615 10.6518743,21.4019186 8.92012491,25.9310413 L6.15135992,25.9310413 C2.71862386,26.0553758 3.71473915e-16,28.8742515 0,32.3092386 C-3.71473915e-16,35.7442256 2.71862386,38.5631014 6.15135992,38.6874359 L8.66081459,38.6874359 C9.86817913,42.7294412 13.1561579,45.8097245 17.2682441,46.7511502 L17.2682441,68.5917707 C17.408332,72.9373183 20.9716062,76.3875739 25.3194112,76.3875739 C29.6672162,76.3875739 33.2304904,72.9373183 33.3705783,68.5917707 L33.3705783,47.0522848 L42.5719121,47.0522848 L66.5622988,65.0868991 C67.0692382,65.4671036 67.74748,65.5282606 68.3142555,65.2448729 C68.8810309,64.9614852 69.2390504,64.3821974 69.2390504,63.7485232 L69.2390504,41.999916 L69.5569147,41.999916 C74.8163835,41.8456423 79,37.5375101 79,32.2757792 C79,27.0140483 74.8163835,22.7059161 69.5569147,22.5516423 L69.5652795,22.5851017 Z M6.15135992,35.3414963 C4.53851764,35.2567565 3.27423665,33.9243055 3.27423665,32.3092386 C3.27423665,30.6941717 4.53851764,29.3617207 6.15135992,29.2769808 L8.18401821,29.2769808 C8.18401821,29.5530209 8.14219396,29.8290609 8.14219396,30.1134657 L8.14219396,35.3414963 L6.15135992,35.3414963 Z M11.4881335,35.3414963 L11.4881335,30.1134657 C11.4881335,25.4936872 15.233204,21.7486168 19.8529824,21.7486168 L41.4342926,21.7486168 L41.4342926,43.7063452 L19.8446176,43.7063452 C15.2248391,43.7063452 11.4797687,39.9612748 11.4797687,35.3414963 L11.4881335,35.3414963 Z M29.9911793,68.5917707 C29.8848394,71.1132825 27.8097049,73.1027468 25.2859518,73.1027468 C22.7621987,73.1027468 20.6870642,71.1132825 20.5807243,68.5917707 L20.5807243,47.0522848 L29.9911793,47.0522848 L29.9911793,68.5917707 Z M65.9014757,60.4276782 L44.7802322,44.5344653 L44.7802322,20.9121319 L54.0819442,13.9107534 L54.0819442,32.313421 C54.0819442,33.2373767 54.8309583,33.9863908 55.754914,33.9863908 C56.6788697,33.9863908 57.4278838,33.2373767 57.4278838,32.313421 L57.4278838,11.551866 C57.4278838,11.5016769 57.4278838,11.4514878 57.4278838,11.4012987 L65.9098406,5.01891899 L65.9014757,60.4276782 Z M69.5652795,38.679071 L69.2474153,38.679071 L69.2474153,25.9310413 L69.5652795,25.9310413 C72.9980156,26.0553758 75.7166395,28.8742515 75.7166395,32.3092386 C75.7166395,35.7442256 72.9980156,38.5631014 69.5652795,38.6874359 L69.5652795,38.679071 Z" id="Shape"></path>
                </g>
            </g>
        </g>
    </g>
</svg>